<svg width="918" height="918" viewBox="0 0 918 918" fill="none" xmlns="http://www.w3.org/2000/svg">
<path d="M917.52 459.24C917.52 587.6 864.8 703.64 779.84 786.9C779.31 787.42 778.77 787.94 778.23 788.46C771.26 795.22 764.08 801.77 756.68 808.09C742.1 820.58 726.72 832.15 710.64 842.73C638.34 890.32 551.78 918 458.76 918C365.74 918 279.18 890.32 206.88 842.73C190.8 832.15 175.42 820.58 160.84 808.09C153.44 801.77 146.26 795.22 139.29 788.46C138.75 787.94 138.21 787.42 137.68 786.9C52.72 703.64 0 587.6 0 459.24C0 205.87 205.39 0.47998 458.76 0.47998C712.13 0.47998 917.52 205.87 917.52 459.24Z" fill="#E0E0E0"/>
<path d="M778.23 788.46C771.26 795.22 764.08 801.77 756.68 808.09C742.1 820.58 726.72 832.15 710.64 842.73C638.34 890.32 551.78 918 458.76 918C365.74 918 279.18 890.32 206.88 842.73C190.8 832.15 175.42 820.58 160.84 808.09C153.44 801.77 146.26 795.22 139.29 788.46C156.58 734.88 198.86 691.45 254.63 673.85L390.42 630.97V608.58C373.4 598.47 358.19 586.91 345.65 578.44C322.32 562.7 306.62 538.03 301.98 510.28L294.74 466.96C272.06 466.96 253.73 448.63 253.73 425.95C253.73 409.09 263.85 394.63 278.37 388.34C265.69 358.61 256.39 327.1 250.8 294.79C247.25 274.32 245.25 252.73 251.26 232.99C257.26 213.25 273.16 195.93 291.92 195.59L294.38 195.76C306.22 177.27 324.72 165.09 344.14 158.05C363.56 151 384.06 148.61 404.37 146.27C412.31 145.36 420.29 144.43 428.29 143.63C465.18 140.08 505.35 139.22 543.07 149.72C580.8 160.23 617.25 183.79 636.46 221.35C651.72 251.15 654.81 287.1 650.97 321.11C648.43 343.68 643.02 365.65 636.67 387.34C652.5 393.01 663.79 408.14 663.79 425.95C663.79 448.63 645.48 466.96 622.78 466.96L615.54 510.28C610.9 538.03 595.21 562.7 571.88 578.44C559.32 586.91 544.13 598.47 527.11 608.58V630.97L662.89 673.85C718.66 691.45 760.94 734.88 778.23 788.46Z" fill="#9E9E9E"/>
</svg>
