<svg width="400" height="232" viewBox="0 0 400 232" fill="none" xmlns="http://www.w3.org/2000/svg">
    <path
        d="M141.721 135.971C153.22 115.743 175.154 100.212 198.373 101.708C181.246 120.333 171.259 144.416 170.179 169.696C169.797 179.446 170.389 190.331 163.914 197.633C159.886 202.176 153.729 204.376 147.674 204.838C141.62 205.299 135.567 204.205 129.594 203.116L128.145 203.561C127.593 180.3 130.222 156.199 141.721 135.971Z"
        fill="#abeed2" />
    <path
        d="M198.405 102.195C181.235 110.461 166.594 124.266 157.606 141.102C155.663 144.742 154.009 148.603 153.287 152.686C152.565 156.77 153.07 160.659 154.465 164.538C155.74 168.085 157.456 171.565 157.847 175.36C158.259 179.36 156.787 183.1 154.138 186.069C150.896 189.701 146.543 191.951 142.209 194.004C137.398 196.284 132.364 198.575 128.956 202.829C128.543 203.345 127.767 202.674 128.18 202.159C134.109 194.757 144.258 193.366 151.297 187.404C154.581 184.622 157.046 180.833 156.891 176.394C156.755 172.512 154.989 168.921 153.666 165.342C152.278 161.583 151.585 157.803 152.083 153.795C152.593 149.696 154.099 145.761 155.941 142.088C160.094 133.803 165.778 126.197 172.288 119.622C179.771 112.064 188.492 105.842 198.073 101.225C198.666 100.939 198.994 101.911 198.405 102.195Z"
        fill="white" />
    <path
        d="M160.237 135.475C157.604 133.55 155.742 130.752 154.982 127.581C154.222 124.41 154.614 121.072 156.088 118.164C156.388 117.576 157.315 118.015 157.015 118.603C155.637 121.309 155.272 124.419 155.986 127.37C156.7 130.322 158.445 132.921 160.907 134.699C161.441 135.085 160.768 135.86 160.237 135.475Z"
        fill="white" />
    <path
        d="M153.582 162.825C160.178 161.861 166.168 158.447 170.359 153.262C170.773 152.749 171.549 153.419 171.135 153.933C166.764 159.319 160.523 162.86 153.658 163.848C153.003 163.941 152.931 162.918 153.582 162.825Z"
        fill="white" />
    <path
        d="M180.279 113.326C181.142 114.283 182.229 115.01 183.443 115.443C184.657 115.876 185.96 116 187.234 115.805C187.887 115.703 187.957 116.727 187.309 116.828C185.9 117.037 184.462 116.898 183.12 116.422C181.777 115.947 180.572 115.151 179.609 114.102C179.509 114.011 179.449 113.885 179.439 113.751C179.429 113.617 179.471 113.484 179.555 113.379C179.645 113.276 179.771 113.213 179.906 113.204C180.042 113.194 180.175 113.237 180.279 113.326Z"
        fill="white" />
    <path
        d="M244.571 165.518C244.165 165.593 243.759 165.669 243.35 165.752C237.897 166.792 232.539 168.273 227.327 170.181C226.921 170.322 226.513 170.471 226.112 170.624C213.604 175.354 202.083 182.365 192.134 191.301C188.178 194.861 184.499 198.716 181.128 202.834C176.474 208.521 171.879 215.058 165.797 218.766C165.166 219.16 164.512 219.514 163.838 219.827L128.799 205.293C128.735 205.22 128.669 205.155 128.605 205.082L127.18 204.566C127.339 204.341 127.508 204.112 127.667 203.887C127.759 203.757 127.859 203.629 127.95 203.499C128.014 203.412 128.078 203.327 128.13 203.245C128.151 203.217 128.173 203.188 128.191 203.167C128.243 203.086 128.301 203.016 128.35 202.943C129.295 201.658 130.251 200.377 131.218 199.101C131.221 199.093 131.221 199.093 131.232 199.088C138.622 189.382 146.887 180.208 156.282 172.58C156.565 172.35 156.851 172.113 157.149 171.89C161.403 168.475 165.929 165.413 170.682 162.736C173.289 161.278 175.968 159.953 178.709 158.766C185.798 155.713 193.322 153.794 201.007 153.08C216.327 151.657 231.931 155.15 243.681 164.774C243.981 165.02 244.274 165.264 244.571 165.518Z"
        fill="#abeed2" />
    <path
        d="M244.307 165.931C225.621 162.193 205.62 164.401 188.307 172.432C184.564 174.169 180.918 176.256 177.884 179.081C174.848 181.908 172.91 185.316 171.688 189.254C170.571 192.853 169.846 196.665 167.873 199.93C165.794 203.372 162.367 205.473 158.464 206.248C153.69 207.196 148.859 206.372 144.163 205.402C138.948 204.325 133.55 203.124 128.267 204.469C127.627 204.632 127.412 203.629 128.051 203.466C137.241 201.126 146.183 206.126 155.392 205.603C159.689 205.359 163.939 203.818 166.487 200.18C168.716 196.999 169.468 193.069 170.567 189.414C171.722 185.577 173.444 182.142 176.255 179.242C179.13 176.276 182.702 174.041 186.384 172.217C194.688 168.102 203.805 165.451 212.962 164.121C223.487 162.592 234.196 162.875 244.626 164.956C245.271 165.086 244.948 166.059 244.307 165.931Z"
        fill="white" />
    <path
        d="M193.798 169.525C192.855 166.403 193.053 163.048 194.355 160.059C195.658 157.069 197.98 154.64 200.908 153.205C201.502 152.917 201.978 153.826 201.384 154.114C198.654 155.446 196.491 157.708 195.284 160.495C194.077 163.281 193.905 166.407 194.801 169.309C194.994 169.939 193.991 170.152 193.798 169.525Z"
        fill="white" />
    <path
        d="M172.015 187.353C177.861 190.555 184.7 191.435 191.167 189.819C191.807 189.658 192.023 190.661 191.383 190.821C184.651 192.491 177.536 191.56 171.459 188.215C170.88 187.896 171.439 187.036 172.015 187.353Z"
        fill="white" />
    <path
        d="M223.132 163.904C223.245 165.188 223.676 166.423 224.384 167.5C225.093 168.576 226.058 169.46 227.192 170.071C227.775 170.383 227.216 171.243 226.637 170.933C225.386 170.252 224.322 169.275 223.536 168.087C222.75 166.9 222.268 165.538 222.13 164.12C222.106 163.988 222.133 163.851 222.206 163.738C222.279 163.625 222.392 163.544 222.523 163.511C222.656 163.483 222.794 163.509 222.908 163.582C223.022 163.656 223.103 163.771 223.132 163.904Z"
        fill="white" />
    <path
        d="M95.4055 130.944C109.122 130.944 120.241 119.825 120.241 106.109C120.241 92.3925 109.122 81.2734 95.4055 81.2734C81.6894 81.2734 70.5703 92.3925 70.5703 106.109C70.5703 119.825 81.6894 130.944 95.4055 130.944Z"
        fill="#FFD0D7" />
    <path
        d="M89.0518 129.728C88.9457 129.494 88.8399 129.26 88.7344 129.024C88.775 129.026 88.8153 129.032 88.8559 129.033L89.0518 129.728Z"
        fill="#2F2E41" />
    <path
        d="M69.8825 82.4024C71.1386 81.4004 72.6067 80.4784 74.2127 80.5302C75.8186 80.582 77.4471 82.0325 77.1144 83.6044C80.0642 78.3816 84.7594 74.3646 90.3759 72.2585C95.9923 70.1525 102.171 70.0921 107.828 72.0878C111.819 73.496 115.733 76.3133 116.65 80.4453C116.886 81.506 116.936 82.6691 117.598 83.5304C118.433 84.6164 120.031 84.8621 121.347 84.48C121.36 84.4762 121.373 84.4723 121.386 84.4684C121.608 84.3925 121.848 84.3851 122.075 84.447C122.301 84.5089 122.504 84.6374 122.657 84.8158C122.81 84.9942 122.905 85.2144 122.931 85.4478C122.958 85.6811 122.913 85.917 122.804 86.1249L121.675 88.2312C123.098 88.5485 124.578 88.517 125.986 88.1395C126.22 88.0781 126.468 88.0906 126.694 88.1753C126.921 88.2601 127.116 88.4128 127.252 88.6127C127.389 88.8125 127.46 89.0497 127.456 89.2916C127.452 89.5336 127.374 89.7684 127.231 89.9639C123.507 95.0768 117.286 98.3783 110.937 98.3395C106.425 98.312 101.866 96.7568 97.474 97.7945C95.7751 98.196 94.1875 98.9727 92.8279 100.068C91.4683 101.163 90.3711 102.548 89.6168 104.123C88.8625 105.697 88.4702 107.42 88.4688 109.166C88.4673 110.912 88.8567 112.635 89.6084 114.211C88.2593 112.735 85.6513 113.085 84.2712 114.532C82.8913 115.979 82.534 118.138 82.6731 120.133C82.8857 123.183 84.0809 126.058 85.341 128.856C74.7764 128.523 64.7841 121.112 61.4206 111.089C58.0431 101.023 61.5828 89.0233 69.8825 82.4024Z"
        fill="#2F2E41" />
    <path
        d="M152.766 182.312C148.877 163.512 144.017 157.244 144.017 157.244L142.161 155.804L139.928 154.07L139.939 153.847L139.409 153.667L139.285 153.57L139.081 153.414L139.048 153.449L138.979 153.521L128.875 150.086L116.057 145.732L110.121 138.017C109.154 136.76 107.91 135.745 106.485 135.05C105.06 134.355 103.493 133.999 101.908 134.011L82.9513 134.151C80.3881 134.17 77.9248 135.147 76.0455 136.891L63.5856 148.448L44.1705 157.721L44.1378 157.688L43.9339 157.833L40.9341 159.268L41.0579 159.912L39.2012 161.252C39.2012 161.252 34.3411 167.084 30.453 184.577C29.4639 189.028 28.977 198.576 28.8013 210.341C28.7924 210.937 28.902 211.528 29.1237 212.08C29.3453 212.632 29.6745 213.135 30.0922 213.559C30.5099 213.983 31.0078 214.32 31.5568 214.55C32.1058 214.78 32.6951 214.899 33.2904 214.899H136.99L149.933 214.899C150.528 214.899 151.117 214.78 151.665 214.55C152.214 214.321 152.712 213.984 153.129 213.561C153.547 213.137 153.876 212.635 154.098 212.083C154.32 211.531 154.43 210.941 154.422 210.346C154.25 197.543 153.764 187.139 152.766 182.312Z"
        fill="#248280" />
    <path opacity="0.2" d="M53.2461 176.636L60.2118 214.535L64.3914 214.899L53.2461 176.636Z" fill="black" />
    <path opacity="0.2" d="M129.973 173.777L123.008 214.507L118.828 214.899L129.973 173.777Z" fill="black" />
    <path
        d="M70.1896 45.4123C68.1714 46.2551 66.0655 45.3315 65.1824 43.2164C64.2857 41.069 65.1232 38.8892 67.1737 38.0329C69.2244 37.1766 71.2928 38.1024 72.204 40.2845C73.1014 42.4338 72.2731 44.5424 70.1896 45.4123ZM66.3236 33.8062L64.7189 34.4762C64.3181 34.6416 63.8697 34.6505 63.4626 34.5012C63.0554 34.3519 62.7192 34.0552 62.5203 33.6698L62.4409 33.5146C60.7143 30.4006 60.5166 26.6161 61.8564 22.272C63.0976 18.3752 63.6132 15.6345 62.5764 13.1516C61.3777 10.2809 58.8181 9.3817 55.5539 10.6844C54.2879 11.213 53.8851 11.2046 52.8888 12.1929C52.6721 12.4105 52.4138 12.5822 52.1293 12.6978C51.8448 12.8134 51.5399 12.8706 51.2328 12.8658C50.936 12.8623 50.6429 12.7991 50.371 12.6799C50.0991 12.5607 49.854 12.3879 49.6503 12.1719C49.2579 11.7557 49.0381 11.2061 49.0352 10.6341C49.0323 10.0621 49.2466 9.51029 49.6348 9.09014C51.3093 7.33719 53.3291 5.95039 55.5666 5.01724C62.5798 2.08876 66.1103 6.41224 67.7259 10.2814C69.3061 14.0658 68.4172 17.5771 66.9889 22.1246C65.792 25.9033 65.8617 28.7033 67.2214 31.4874C67.3195 31.6978 67.3741 31.926 67.3819 32.1581C67.3897 32.3902 67.3505 32.6215 67.2667 32.8381C67.1828 33.0546 67.0561 33.252 66.894 33.4184C66.732 33.5847 66.5379 33.7166 66.3236 33.8062Z"
        fill="#248280" />
    <path
        d="M193.056 35.585C186.959 35.585 181.112 38.0068 176.801 42.3177C172.49 46.6287 170.068 52.4755 170.068 58.5721C170.068 64.6687 172.49 70.5155 176.801 74.8265C181.112 79.1374 186.959 81.5592 193.056 81.5592H364.364C370.461 81.5592 376.308 79.1374 380.619 74.8265C384.93 70.5155 387.352 64.6687 387.352 58.5721C387.352 52.4755 384.93 46.6287 380.619 42.3177C376.308 38.0068 370.461 35.585 364.364 35.585H193.056Z"
        fill="#F8B9BB" />
    <path
        d="M193.058 40.2363C188.195 40.2363 183.531 42.168 180.093 45.6065C176.654 49.045 174.723 53.7086 174.723 58.5713C174.723 63.4341 176.654 68.0976 180.093 71.5361C183.531 74.9746 188.195 76.9063 193.058 76.9063H364.367C369.229 76.9063 373.893 74.9746 377.331 71.5361C380.77 68.0976 382.702 63.4341 382.702 58.5713C382.702 53.7086 380.77 49.045 377.331 45.6065C373.893 42.168 369.229 40.2363 364.367 40.2363H193.058Z"
        fill="white" />
    <path
        d="M230.897 69.5355H196.813C196.705 69.5362 196.597 69.5156 196.497 69.4746C196.397 69.4337 196.306 69.3734 196.229 69.297C196.152 69.2207 196.091 69.13 196.049 69.03C196.008 68.93 195.986 68.8228 195.986 68.7145C195.986 68.6063 196.008 68.499 196.049 68.3991C196.091 68.2991 196.152 68.2084 196.229 68.132C196.306 68.0557 196.397 67.9954 196.497 67.9545C196.597 67.9135 196.705 67.8928 196.813 67.8936H230.897C231.114 67.895 231.321 67.9822 231.474 68.136C231.627 68.2898 231.712 68.4978 231.712 68.7145C231.712 68.9313 231.627 69.1393 231.474 69.2931C231.321 69.4469 231.114 69.534 230.897 69.5355Z"
        fill="#E91C24" />
    <path
        d="M274.131 69.809H240.047C239.939 69.8097 239.832 69.789 239.731 69.7481C239.631 69.7072 239.54 69.6468 239.463 69.5705C239.386 69.4942 239.325 69.4034 239.284 69.3035C239.242 69.2035 239.221 69.0963 239.221 68.988C239.221 68.8797 239.242 68.7725 239.284 68.6725C239.325 68.5725 239.386 68.4818 239.463 68.4055C239.54 68.3292 239.631 68.2688 239.731 68.2279C239.832 68.187 239.939 68.1663 240.047 68.167H274.131C274.24 68.1663 274.347 68.187 274.447 68.2279C274.548 68.2688 274.639 68.3292 274.716 68.4055C274.792 68.4818 274.853 68.5725 274.895 68.6725C274.937 68.7725 274.958 68.8797 274.958 68.988C274.958 69.0963 274.937 69.2035 274.895 69.3035C274.853 69.4034 274.792 69.4942 274.716 69.5705C274.639 69.6468 274.548 69.7072 274.447 69.7481C274.347 69.789 274.24 69.8097 274.131 69.809Z"
        fill="#E91C24" />
    <path
        d="M317.372 70.0824H283.288C283.071 70.0809 282.864 69.9938 282.711 69.84C282.558 69.6862 282.473 69.4782 282.473 69.2614C282.473 69.0446 282.558 68.8367 282.711 68.6829C282.864 68.5291 283.071 68.4419 283.288 68.4404H317.372C317.48 68.4397 317.588 68.4604 317.688 68.5013C317.788 68.5423 317.879 68.6026 317.956 68.6789C318.033 68.7552 318.094 68.846 318.136 68.9459C318.177 69.0459 318.199 69.1531 318.199 69.2614C318.199 69.3697 318.177 69.4769 318.136 69.5769C318.094 69.6769 318.033 69.7676 317.956 69.8439C317.879 69.9202 317.788 69.9806 317.688 70.0215C317.588 70.0624 317.48 70.0831 317.372 70.0824Z"
        fill="#E91C24" />
    <path
        d="M360.607 70.3568H326.522C326.306 70.3553 326.098 70.2682 325.946 70.1144C325.793 69.9606 325.707 69.7526 325.707 69.5358C325.707 69.319 325.793 69.1111 325.946 68.9573C326.098 68.8035 326.306 68.7163 326.522 68.7148H360.607C360.823 68.7163 361.031 68.8035 361.183 68.9573C361.336 69.1111 361.422 69.319 361.422 69.5358C361.422 69.7526 361.336 69.9606 361.183 70.1144C361.031 70.2682 360.823 70.3553 360.607 70.3568Z"
        fill="#E91C24" />
    <path
        d="M213.78 61.9801C217.279 61.9801 220.115 59.1439 220.115 55.6453C220.115 52.1467 217.279 49.3105 213.78 49.3105C210.281 49.3105 207.445 52.1467 207.445 55.6453C207.445 59.1439 210.281 61.9801 213.78 61.9801Z"
        fill="#E91C24" />
    <path
        d="M257.278 61.9801C260.777 61.9801 263.613 59.1439 263.613 55.6453C263.613 52.1467 260.777 49.3105 257.278 49.3105C253.78 49.3105 250.943 52.1467 250.943 55.6453C250.943 59.1439 253.78 61.9801 257.278 61.9801Z"
        fill="#E91C24" />
    <path
        d="M300.774 61.9801C304.273 61.9801 307.109 59.1439 307.109 55.6453C307.109 52.1467 304.273 49.3105 300.774 49.3105C297.276 49.3105 294.439 52.1467 294.439 55.6453C294.439 59.1439 297.276 61.9801 300.774 61.9801Z"
        fill="#E91C24" />
    <path
        d="M344.276 61.9801C347.775 61.9801 350.611 59.1439 350.611 55.6453C350.611 52.1467 347.775 49.3105 344.276 49.3105C340.778 49.3105 337.941 52.1467 337.941 55.6453C337.941 59.1439 340.778 61.9801 344.276 61.9801Z"
        fill="#E91C24" />
</svg>