<svg width="16" height="16" viewBox="0 0 16 16" fill="none" xmlns="http://www.w3.org/2000/svg">
<path d="M8 0.6875C6.73752 0.687225 5.49647 1.01381 4.39765 1.63547C3.29883 2.25714 2.37968 3.15269 1.72965 4.23498C1.07963 5.31726 0.720887 6.5494 0.688337 7.81146C0.655787 9.07353 0.95054 10.3225 1.54391 11.4369L0.745861 13.831C0.679756 14.0292 0.670163 14.242 0.718156 14.4453C0.766149 14.6487 0.869833 14.8347 1.01758 14.9824C1.16534 15.1302 1.35132 15.2339 1.55468 15.2818C1.75805 15.3298 1.97077 15.3202 2.16899 15.2541L4.56313 14.4561C5.54382 14.9777 6.63046 15.269 7.74057 15.308C8.85067 15.347 9.95506 15.1325 10.9699 14.6809C11.9848 14.2293 12.8834 13.5525 13.5976 12.7017C14.3118 11.851 14.8228 10.8487 15.0918 9.77098C15.3608 8.69326 15.3808 7.56842 15.1502 6.48184C14.9196 5.39525 14.4444 4.37549 13.7609 3.49994C13.0773 2.6244 12.2032 1.91608 11.2051 1.42877C10.2069 0.941461 9.11079 0.687956 8 0.6875ZM8 14.1875C6.91225 14.1882 5.84359 13.9018 4.90203 13.3571C4.8331 13.3171 4.75645 13.2923 4.67717 13.2841C4.5979 13.276 4.5178 13.2848 4.44219 13.31L1.8125 14.1875L2.6893 11.5578C2.71457 11.4823 2.72351 11.4022 2.71551 11.3229C2.70751 11.2436 2.68275 11.167 2.64289 11.098C1.96084 9.91877 1.687 8.54744 1.86385 7.19672C2.0407 5.846 2.65836 4.5914 3.621 3.62754C4.58365 2.66368 5.83747 2.04444 7.18796 1.86588C8.53845 1.68733 9.91012 1.95944 11.0902 2.64C12.2703 3.32056 13.1927 4.37153 13.7145 5.62987C14.2364 6.88822 14.3283 8.28359 13.9762 9.59953C13.624 10.9155 12.8474 12.0784 11.7669 12.908C10.6863 13.7375 9.36225 14.1873 8 14.1875Z" fill="#2A2A2A"/>
</svg>
