<svg width="22" height="22" viewBox="0 0 22 22" fill="none" xmlns="http://www.w3.org/2000/svg">
<path d="M20.8112 10.9399L19.3112 9.43991C19.0568 9.1858 18.7196 9.03153 18.361 9.0052C18.0024 8.97887 17.6463 9.08224 17.3575 9.29647L12.7037 4.64272C12.9181 4.35405 13.0216 3.99798 12.9955 3.63937C12.9693 3.28077 12.8152 2.94349 12.5612 2.68897L11.0612 1.18897C10.922 1.04965 10.7566 0.939129 10.5746 0.863725C10.3926 0.788322 10.1975 0.749512 10.0005 0.749512C9.80346 0.749512 9.60837 0.788322 9.42636 0.863725C9.24435 0.939129 9.07898 1.04965 8.93969 1.18897L2.93969 7.18897C2.80036 7.32827 2.68984 7.49364 2.61444 7.67565C2.53904 7.85766 2.50023 8.05274 2.50023 8.24975C2.50023 8.44677 2.53904 8.64185 2.61444 8.82386C2.68984 9.00587 2.80036 9.17124 2.93969 9.31054L4.43969 10.8105C4.69415 11.0643 5.03124 11.2182 5.38963 11.2444C5.74803 11.2705 6.1039 11.1671 6.3925 10.953L7.06469 11.6252L0.935311 17.7546C0.528099 18.2 0.308362 18.7852 0.321853 19.3885C0.335343 19.9919 0.581022 20.5667 1.00774 20.9934C1.43445 21.4201 2.00931 21.6658 2.61262 21.6793C3.21593 21.6928 3.8012 21.4731 4.24656 21.0658L10.375 14.9365L11.0472 15.6077C10.8328 15.8964 10.7293 16.2525 10.7555 16.6111C10.7816 16.9697 10.9357 17.307 11.1897 17.5615L12.6897 19.0615C12.829 19.2008 12.9944 19.3113 13.1764 19.3867C13.3584 19.4621 13.5535 19.5009 13.7505 19.5009C13.9475 19.5009 14.1426 19.4621 14.3246 19.3867C14.5066 19.3113 14.672 19.2008 14.8112 19.0615L20.8112 13.0615C20.9506 12.9222 21.0611 12.7568 21.1365 12.5748C21.2119 12.3928 21.2507 12.1977 21.2507 12.0007C21.2507 11.8037 21.2119 11.6086 21.1365 11.4266C21.0611 11.2446 20.9506 11.0792 20.8112 10.9399ZM5.5 9.75022L4 8.25022L10 2.25022L11.5 3.75022L5.5 9.75022ZM3.18625 20.0046C3.02816 20.1617 2.81431 20.25 2.5914 20.25C2.3685 20.25 2.15465 20.1617 1.99656 20.0046C1.8397 19.8465 1.75167 19.6329 1.75167 19.4102C1.75167 19.1875 1.8397 18.9739 1.99656 18.8158L8.125 12.6865L9.31469 13.8752L3.18625 20.0046ZM7.46875 9.90585L11.6556 5.71897L16.2812 10.3446L12.0953 14.5315L7.46875 9.90585ZM13.75 18.0002L12.25 16.5002L12.625 16.1252L17.875 10.8752L18.25 10.5002L19.75 12.0002L13.75 18.0002Z" fill="#248280"/>
</svg>
