<svg width="762" height="216" viewBox="0 0 762 216" fill="none" xmlns="http://www.w3.org/2000/svg">
<path opacity="0.8" d="M73.35 121.938H85.65C86.35 121.938 87.05 122.338 87.25 123.038C89.85 129.538 103.35 163.639 101.45 178.339C99.25 196.139 80.35 215.938 80.35 215.938C80.35 215.938 56.35 187.138 56.25 175.738C56.25 164.438 64.45 137.038 71.45 123.038C71.85 122.338 72.55 121.938 73.35 121.938Z" fill="white"/>
<path d="M157.15 105.738L129.35 91.9385C129.35 91.9385 129.75 115.838 113.85 153.438C97.8503 191.038 80.5503 215.938 80.5503 215.938C80.5503 215.938 118.65 208.338 142.95 172.738C162.85 143.138 157.15 105.738 157.15 105.738Z" fill="white"/>
<path d="M28.8501 91.9385L1.05007 105.738C1.05007 105.738 -4.64992 143.138 15.2501 172.738C39.5501 208.338 80.4501 215.938 80.4501 215.938C80.4501 215.938 60.3501 191.138 44.3501 153.438C28.3501 115.838 28.8501 91.9385 28.8501 91.9385Z" fill="white"/>
<path d="M45.7503 41.0391C45.7503 41.0391 57.8503 50.1391 52.4503 62.8391C46.3503 64.1391 40.3503 64.0391 36.5503 62.8391C32.7503 61.6391 30.6503 60.5391 29.6503 59.8391C28.7503 59.1391 29.1503 58.3391 30.1503 57.8391C31.1503 57.4391 34.5503 55.9391 35.9503 53.0391C37.3503 50.1391 37.8503 49.139 40.6503 46.239C43.5503 43.439 45.7503 41.0391 45.7503 41.0391Z" fill="white"/>
<path d="M33.9499 31.2383C37.6499 33.6383 40.5499 35.8383 41.7499 37.2383C42.9499 38.6383 44.3499 40.7383 40.4499 44.0383C36.5499 47.3383 35.1499 48.8384 33.9499 51.4384C32.7499 54.0384 32.1499 54.6383 30.5499 55.2383C28.8499 55.8383 27.7499 56.2383 27.8499 59.1383C27.9499 62.0383 28.5499 70.6383 30.7499 74.2383C27.6499 72.0383 18.7499 66.1383 16.1499 54.1383C13.5499 42.1383 17.2499 32.0383 23.9499 25.2383C27.3499 27.6383 33.9499 31.2383 33.9499 31.2383Z" fill="white"/>
<path d="M33.7501 26.7384C34.5233 26.7384 35.1501 26.1117 35.1501 25.3385C35.1501 24.5653 34.5233 23.9385 33.7501 23.9385C32.9769 23.9385 32.3501 24.5653 32.3501 25.3385C32.3501 26.1117 32.9769 26.7384 33.7501 26.7384Z" fill="white"/>
<path d="M46.2503 19.3392C45.4503 20.4392 45.2503 21.7392 45.1503 23.5392C45.0503 25.4392 44.6503 27.4392 44.9503 28.3392C44.4503 28.0392 44.2503 27.2392 44.3503 25.8392C44.4503 24.4392 44.7503 22.8392 44.7503 22.0392C44.7503 21.2392 44.7503 20.5392 44.7503 20.5392C44.7503 20.5392 43.7503 21.7391 43.5503 22.7391C43.7503 21.3391 44.2503 19.5392 45.0503 18.8392C45.8503 18.2392 46.2503 19.3392 46.2503 19.3392Z" fill="white"/>
<path d="M48.6498 21.1387C48.6498 21.1387 45.9498 28.1387 46.9498 29.8387C46.0498 29.7387 45.4498 29.2387 46.1498 26.3387C46.8498 23.3387 48.6498 21.1387 48.6498 21.1387Z" fill="white"/>
<path d="M49.15 26.1384C49.15 26.1384 49.45 23.1385 51.95 19.9385C50.75 20.7385 48.45 23.2384 49.15 26.1384Z" fill="white"/>
<path d="M48.7501 30.0385C48.7501 30.0385 48.2501 29.3384 48.8501 28.6384C49.5501 27.8384 52.2501 22.9385 53.1501 21.4385C51.1501 24.0385 48.8501 27.1384 48.2501 28.1384C47.6501 29.2384 47.6501 30.1385 48.7501 30.0385Z" fill="white"/>
<path d="M51.9502 30.6384C51.9502 30.6384 51.1503 31.0384 50.3503 30.6384C49.5503 30.2384 49.8502 29.2385 50.1502 28.9385C50.5502 29.7385 50.3502 30.4384 51.9502 30.6384Z" fill="white"/>
<path d="M65.1499 22.2391C63.5499 20.1391 61.6499 18.9392 58.6499 19.4392C55.6499 19.8392 54.2499 20.8391 53.4499 22.5391C52.6499 24.3391 51.25 26.4392 50.85 28.3392C50.55 30.2392 54.4499 30.4392 54.4499 30.4392C50.5499 29.2392 51.45 28.3392 51.75 27.4392C52.05 26.6392 53.15 24.3391 54.25 22.5391C55.35 20.7391 56.0499 21.1391 56.0499 21.1391C56.0499 21.1391 55.5499 21.9391 54.4499 23.7391C53.4499 25.5391 53.3499 26.4391 55.0499 29.1391C56.7499 31.8391 60.4499 31.2391 62.9499 29.7391C65.4499 28.3391 66.8499 24.3391 65.1499 22.2391ZM62.5499 28.6391C61.5499 29.3391 60.35 30.4392 57.25 29.3392C55.85 28.3392 54.45 26.4392 54.75 24.9392C55.05 23.4392 55.2499 22.8392 56.4499 21.4392C57.6499 20.0392 58.2499 19.8392 59.6499 19.8392C61.0499 19.8392 62.3499 20.2391 63.4499 21.2391C64.5499 22.1391 64.7499 22.8391 64.9499 24.6391C65.0499 26.3391 63.4499 27.9391 62.5499 28.6391Z" fill="white"/>
<path d="M62.6499 26.1392C63.1499 25.4392 63.5499 24.0393 63.0499 22.9393C62.5499 21.7393 61.7499 21.0392 60.8499 20.6392C59.9499 20.2392 57.9499 20.8392 56.8499 22.2392C55.7499 23.6392 56.2499 24.1393 56.7499 25.3393C57.2499 26.5393 57.1499 27.8393 59.1499 28.0393C61.1499 28.2393 62.6499 26.1392 62.6499 26.1392Z" fill="white"/>
<path d="M61.4502 25.2384C61.7502 24.8384 61.9502 24.0384 61.6502 23.2384C61.3502 22.5384 60.8503 22.0385 60.3503 21.8385C59.7503 21.6385 58.5502 21.9385 57.9502 22.8385C57.3502 23.7385 58.6502 23.3385 58.9502 24.0385C59.2502 24.7385 58.1503 26.2385 59.3503 26.3385C60.5503 26.5385 61.4502 25.2384 61.4502 25.2384Z" fill="#22BBB3"/>
<path d="M70.9501 32.4389C71.9501 32.3389 72.5501 31.8389 73.9501 30.8389C72.9501 30.7389 70.7501 31.5388 69.2501 32.1388C67.7501 32.7388 65.6501 34.2388 63.7501 34.7388C61.8501 35.2388 62.0501 35.6388 60.3501 35.7388C58.6501 35.8388 57.6501 36.1388 58.8501 36.2388C59.9501 36.3388 62.0501 36.6388 66.2501 36.2388C63.8501 38.2388 59.9501 37.4389 58.7501 36.9389C57.4501 36.4389 55.0501 36.1389 53.2501 35.4389C51.4501 34.7389 49.6501 34.3389 49.2501 33.8389C48.8501 33.3389 49.0501 33.0389 48.2501 32.9389C47.4501 32.8389 46.0501 33.2388 44.9501 32.5388C43.8501 31.8388 44.5501 31.3389 45.4501 31.4389C46.3501 31.5389 47.9501 32.0388 50.2501 32.5388C50.1501 33.0388 50.4501 33.3388 51.0501 33.6388C51.5501 34.0388 52.5501 34.5388 55.3501 35.2388C58.1501 35.8388 60.6501 34.8388 62.8501 33.6388C65.0501 32.4388 66.7501 30.9388 67.9501 29.2388C69.1501 27.5388 69.8501 27.3389 71.5501 26.8389C72.3501 26.6389 73.2501 26.7389 73.2501 26.4389C73.2501 26.1389 73.1501 26.0388 71.6501 26.2388C70.1501 26.3388 68.7501 27.3389 67.9501 28.3389C67.1501 29.3389 64.9501 31.4388 63.9501 32.2388C62.9501 33.0388 61.5501 33.6389 59.2501 33.4389C56.9501 33.2389 53.9501 32.5389 50.8501 31.8389C47.7501 31.1389 46.3501 30.4388 45.2501 30.0388C44.1501 29.6388 45.2501 30.1389 45.1501 30.8389C45.0501 31.5389 44.0501 31.2389 42.8501 30.8389C41.6501 30.4389 42.3501 31.0389 43.8501 32.3389C45.3501 33.6389 46.0501 33.4388 47.6501 34.0388C49.2501 34.6388 51.4501 35.8388 53.6501 36.6388C55.8501 37.4388 57.7501 38.2388 61.3501 38.6388C64.9501 39.0388 66.9501 36.7388 67.5501 36.2388C68.1501 35.6388 69.3501 34.6388 70.2501 34.7388C71.0501 34.8388 70.9501 34.4388 70.9501 33.7388C70.9501 32.9388 69.8501 33.9388 68.1501 34.7388C66.4501 35.5388 65.0501 36.1389 62.2501 35.8389C64.4501 35.3389 67.3501 34.1388 67.9501 33.7388C68.6501 33.2388 69.9501 32.5389 70.9501 32.4389ZM54.7501 33.4389C56.0501 33.6389 58.0501 33.7388 58.9501 33.7388C59.8501 33.7388 60.1501 33.7388 59.8501 34.0388C59.8501 34.0388 58.8501 34.7388 57.1501 34.7388C55.4501 34.7388 52.4501 34.3389 51.0501 32.9389C51.9501 32.8389 53.4501 33.3389 54.7501 33.4389Z" fill="white"/>
<path d="M63.8501 33.9389C63.8501 33.9389 65.9501 32.9388 68.8501 30.7388C71.6501 28.5388 77.5501 27.0389 80.1501 28.0389C80.0501 28.8389 80.0501 28.8389 80.0501 28.8389C80.0501 28.8389 77.3501 27.9389 74.5501 28.9389C73.6501 29.2389 72.2501 29.5388 71.0501 30.2388C68.2501 31.5388 65.5501 33.5389 63.8501 33.9389Z" fill="white"/>
<path d="M125.35 90.6388C125.35 90.6388 113.95 98.4389 105.75 102.339C97.5502 106.239 99.1502 106.639 84.7502 106.339C70.3502 106.039 62.3502 107.139 56.1502 104.439C49.9502 101.739 33.0502 90.6388 33.0502 90.6388C33.0502 90.6388 52.5502 81.8389 54.1502 64.3389C56.2502 56.3389 56.5502 54.9389 56.5502 54.9389C56.5502 54.9389 59.4502 56.0389 60.8502 56.9389C60.6502 55.5389 62.1502 54.3389 62.1502 54.3389C62.1502 54.3389 62.8502 55.1389 64.1502 55.3389C65.4502 55.5389 65.4502 54.2389 65.1502 53.4389C64.7502 52.6389 65.3502 51.9389 66.5502 53.0389C67.7502 54.1389 69.0502 53.5388 68.9502 52.1388C68.8502 50.7388 69.1502 50.5388 70.3502 50.7388C71.5502 50.9388 72.3502 50.5389 72.2502 49.4389C72.1502 48.3389 72.4502 47.9389 73.4502 47.8389C74.5502 47.7389 74.4502 47.9389 75.1502 46.8389C75.9502 45.7389 76.1502 44.7389 77.0502 45.0389C76.4502 44.1389 75.7502 42.7388 76.3502 42.2388C76.9502 41.7388 78.3502 40.6388 78.3502 40.6388C78.3502 40.6388 76.4502 39.0389 77.3502 38.0389C78.2502 37.0389 78.8502 36.0388 78.1502 35.6388C77.4502 35.2388 75.6502 34.2388 77.1502 34.1388C78.6502 34.0388 78.7502 33.9389 78.6502 33.0389C78.5502 32.1389 78.7502 31.9388 77.7502 31.1388C76.7502 30.3388 76.7502 29.9388 77.6502 29.6388C78.5502 29.3388 78.2502 29.0389 78.2502 28.4389C78.1502 27.8389 78.2502 27.4389 79.9502 27.4389C81.6502 27.4389 82.7502 27.4389 82.7502 27.4389C82.7502 27.4389 73.3502 19.9388 65.9502 18.2388C58.5502 16.5388 52.8502 17.9389 49.3502 19.0389C45.8502 20.1389 44.0502 20.1388 42.1502 20.2388C42.2502 24.4388 42.3502 28.0389 42.8502 29.5389C41.5502 25.0389 41.3502 21.1389 40.5502 20.3389C39.5502 20.4389 38.7502 20.4389 38.7502 20.4389C38.7502 20.4389 39.3502 27.2389 39.9502 28.5389C40.5502 29.8389 40.6502 30.7388 39.8502 29.6388C39.0502 28.5388 38.7502 25.7389 38.2502 24.0389C37.7502 22.3389 37.2502 20.7388 35.2502 20.7388C33.2502 20.6388 28.2502 21.0389 25.9502 21.8389C23.6502 22.6389 22.6502 23.9388 22.2502 24.6388C22.0502 22.2388 21.4502 18.1389 25.1502 13.5389C28.8502 8.93887 37.5502 1.73882 55.7502 0.238821C73.9502 -1.26118 90.7502 7.13887 96.5502 11.0389C102.35 14.9389 109.25 20.2389 111.25 22.8389C104.65 19.0389 102.45 17.7389 98.6502 16.9389C106.65 24.0389 117.65 35.3388 122.65 54.2388C118.15 47.6388 117.85 46.3388 113.05 43.1388C117.05 50.2388 120.65 57.7388 123.75 73.1388C120.95 66.8388 117.55 61.6388 114.55 58.7388C115.25 62.1388 119.35 72.2389 120.15 75.9389C121.35 79.3389 123.25 89.9389 125.35 90.6388Z" fill="white"/>
<path d="M38.4499 110.438L41.6499 124.738L65.7499 103.738L67.85 105.838L41.2499 125.938C41.2499 125.938 39.9499 126.538 39.6499 125.438C39.3499 124.138 37.1499 112.538 38.4499 110.438Z" fill="white"/>
<path d="M118.95 110.839L116.55 124.839L92.35 103.938L90.25 106.038L117.05 125.938C117.05 125.938 118.35 126.539 118.65 125.339C118.85 124.239 120.25 112.939 118.95 110.839Z" fill="white"/>
<path d="M97.7501 105.839L87.3501 121.139C86.9501 121.639 86.4501 121.939 85.7501 121.939H73.0501C72.4501 121.939 71.9501 121.639 71.6501 121.239L60.8501 105.639C60.8501 105.639 67.3501 98.9392 80.5501 99.6392C92.9501 100.439 97.7501 105.839 97.7501 105.839Z" fill="white"/>
<g opacity="0.2">
<path d="M151.15 118.539L133.95 126.939V126.539L144.55 134.139L144.75 134.239L144.65 134.439C142.35 141.539 139.05 148.339 135.45 154.839C131.75 161.339 127.65 167.539 123.05 173.439C121.95 174.939 120.75 176.339 119.55 177.739L117.75 179.939L115.85 182.039L112.05 186.139L108.15 190.039C105.55 192.739 102.75 195.139 99.9501 197.639L98.9501 198.539L97.8501 199.439L95.6501 201.139L91.3501 204.639L95.6501 201.039L97.7501 199.239L98.8501 198.339L99.8501 197.339L103.95 193.539C104.65 192.939 105.35 192.339 105.95 191.639L107.85 189.639L111.75 185.639L115.45 181.439L117.25 179.339L119.05 177.139C120.25 175.639 121.45 174.239 122.55 172.839C127.05 166.939 131.15 160.739 134.85 154.339C138.45 147.939 141.75 141.139 144.15 134.139L144.25 134.439L133.85 126.739L133.55 126.539L133.85 126.339L151.15 118.539Z" fill="#606161"/>
</g>
<g opacity="0.2">
<path d="M5.25 118.539L22.65 126.539L22.95 126.739L22.65 126.939L12.25 134.639L12.35 134.339C14.65 141.339 17.95 148.039 21.65 154.539C25.35 160.939 29.45 167.139 33.95 173.039C35.05 174.539 36.25 175.939 37.45 177.339L39.25 179.539L41.05 181.639L44.75 185.839L48.65 189.839L50.55 191.839C51.15 192.539 51.95 193.139 52.55 193.739L56.65 197.539L57.65 198.539L58.75 199.439L60.85 201.239L65.15 204.839L60.85 201.339L58.65 199.639L57.55 198.739L56.55 197.839C53.75 195.339 50.95 192.939 48.35 190.239L44.45 186.239L40.65 182.139L38.75 180.039L36.95 177.839C35.75 176.339 34.55 174.939 33.45 173.539C28.95 167.639 24.75 161.439 21.05 154.939C17.45 148.439 14.15 141.739 11.85 134.539L11.75 134.339L11.95 134.239L22.55 126.639V127.039L5.25 118.539Z" fill="#606161"/>
</g>
<path d="M224.406 74.3379V155.538H275.006V172.638H205.906V74.3379H224.406Z" fill="white"/>
<path d="M344.506 103.439H360.906V172.639H344.706L343.906 162.539C340.006 170.639 329.206 174.639 321.406 174.739C300.906 174.839 285.706 162.239 285.706 137.939C285.706 114.039 301.606 101.539 321.806 101.739C331.106 101.739 339.906 106.139 343.906 112.939L344.506 103.439ZM302.906 137.939C302.906 151.139 312.006 159.039 323.406 159.039C350.406 159.039 350.406 117.039 323.406 117.039C312.006 117.039 302.906 124.739 302.906 137.939Z" fill="white"/>
<path d="M434.506 105.139L449.706 157.239L465.606 105.139H484.606L460.406 174.839H440.406L433.206 154.339L427.006 131.139L420.806 154.339L413.606 174.839H393.706L369.406 105.139H388.506L404.406 157.239L419.406 105.139H434.506Z" fill="white"/>
<path d="M570.306 103.438L528.006 201.638H509.206L522.106 171.538L494.406 103.438H514.406L524.906 133.339L531.506 152.839L538.706 133.738L551.306 103.438H570.306Z" fill="white"/>
<path d="M598.006 83.9383C598.006 97.2383 577.806 97.2383 577.806 83.9383C577.806 70.6383 598.006 70.5383 598.006 83.9383Z" fill="#22BBB3"/>
<path d="M596.406 103.139H579.306V172.639H596.406V103.139Z" fill="white"/>
<path d="M662.906 172.638V136.438C662.906 125.938 657.106 117.938 646.206 117.938C635.706 117.938 628.506 126.738 628.506 137.338V172.738H611.506V103.338H626.806L627.906 112.738C634.906 105.838 641.906 102.338 650.706 102.338C667.006 102.338 680.106 114.538 680.106 136.338V172.738H662.906V172.638Z" fill="white"/>
<path d="M749.106 96.4385L761.706 106.038L754.006 115.839C759.306 121.839 761.306 128.739 761.306 136.339C761.306 144.938 758.106 156.938 746.706 162.138C758.206 167.938 761.006 176.138 761.006 185.038C761.006 204.138 746.406 215.938 726.306 215.938C706.206 215.938 691.206 203.738 691.206 185.038H708.206C708.206 194.038 716.506 199.938 726.306 199.938C736.106 199.938 743.906 194.638 743.906 185.038C743.906 175.438 734.906 171.138 726.306 171.138C704.706 171.138 691.206 157.938 691.206 136.339C691.206 114.739 706.906 101.238 726.306 101.238C731.806 101.238 737.406 101.938 742.206 105.138L749.106 96.4385ZM708.206 136.238C708.206 148.338 716.306 155.438 726.306 155.438C736.106 155.438 744.306 148.138 744.306 136.238C744.306 124.338 736.206 116.738 726.306 116.738C716.406 116.738 708.206 124.238 708.206 136.238Z" fill="white"/>
</svg>
