<svg width="762" height="216" viewBox="0 0 762 216" fill="none" xmlns="http://www.w3.org/2000/svg">
<path d="M73.3501 121.889H85.7501C86.4501 121.889 87.1501 122.289 87.3501 122.989C89.9501 129.489 103.45 163.589 101.55 178.289C99.3501 196.089 80.4501 215.889 80.4501 215.889C80.4501 215.889 56.4501 187.089 56.3501 175.689C56.3501 164.389 64.5501 136.989 71.5501 122.989C71.9501 122.289 72.5501 121.889 73.3501 121.889Z" fill="#248280"/>
<path d="M157.15 105.689L129.35 91.8887C129.35 91.8887 129.75 115.789 113.85 153.389C97.8503 190.989 80.5503 215.889 80.5503 215.889C80.5503 215.889 118.65 208.289 142.95 172.689C162.85 143.089 157.15 105.689 157.15 105.689Z" fill="#248280"/>
<path d="M28.8501 91.8887L1.05008 105.689C1.05008 105.689 -4.64994 143.089 15.2501 172.689C39.5501 208.289 80.4501 215.889 80.4501 215.889C80.4501 215.889 60.3501 191.089 44.3501 153.389C28.4501 115.689 28.8501 91.8887 28.8501 91.8887Z" fill="#248280"/>
<path d="M45.8499 40.9883C45.8499 40.9883 57.9499 50.0883 52.5499 62.7883C46.4499 64.0883 40.4499 63.9883 36.6499 62.7883C32.8499 61.5883 30.7499 60.4883 29.7499 59.7883C28.8499 59.0883 29.2499 58.2883 30.2499 57.7883C31.2499 57.3883 34.6499 55.8883 36.0499 52.9883C37.4499 50.0883 37.9499 49.0883 40.7499 46.1883C43.5499 43.3883 45.8499 40.9883 45.8499 40.9883Z" fill="#248280"/>
<path d="M33.9499 31.1885C37.6499 33.5885 40.5499 35.7885 41.7499 37.1885C42.9499 38.5885 44.3499 40.6885 40.4499 43.9885C36.6499 47.2885 35.1499 48.7885 33.9499 51.3885C32.7499 53.9885 32.1499 54.5885 30.5499 55.1885C28.8499 55.7885 27.7499 56.1885 27.8499 59.0885C27.9499 61.9885 28.5499 70.5885 30.7499 74.1885C27.6499 71.9885 18.7499 66.0885 16.1499 54.0885C13.5499 42.0885 17.2499 31.9885 23.9499 25.1885C27.3499 27.5885 33.9499 31.1885 33.9499 31.1885Z" fill="#248280"/>
<path d="M33.8502 26.6887C34.6234 26.6887 35.2502 26.0619 35.2502 25.2887C35.2502 24.5155 34.6234 23.8887 33.8502 23.8887C33.077 23.8887 32.4502 24.5155 32.4502 25.2887C32.4502 26.0619 33.077 26.6887 33.8502 26.6887Z" fill="#248280"/>
<path d="M46.2503 19.2885C45.4503 20.3885 45.2503 21.6884 45.1503 23.4884C45.0503 25.2884 44.6503 27.3885 44.9503 28.2885C44.4503 27.9885 44.2503 27.1885 44.3503 25.7885C44.4503 24.3885 44.7503 22.7884 44.7503 21.9884C44.7503 21.1884 44.7503 20.4884 44.7503 20.4884C44.7503 20.4884 43.7503 21.6885 43.5503 22.6885C43.7503 21.2885 44.2503 19.4885 45.0503 18.7885C45.8503 18.1885 46.2503 19.2885 46.2503 19.2885Z" fill="url(#paint0_linear_265_8057)"/>
<path d="M48.6498 20.9883C48.6498 20.9883 45.9498 27.9883 46.9498 29.6883C46.0498 29.5883 45.4498 29.0883 46.1498 26.1883C46.8498 23.2883 48.6498 20.9883 48.6498 20.9883Z" fill="#248280"/>
<path d="M49.15 26.0887C49.15 26.0887 49.45 23.0887 51.95 19.8887C50.75 20.6887 48.45 23.1887 49.15 26.0887Z" fill="#248280"/>
<path d="M48.7501 29.9887C48.7501 29.9887 48.2501 29.2887 48.8501 28.5887C49.5501 27.7887 52.2501 22.8887 53.1501 21.3887C51.1501 23.9887 48.8501 27.0887 48.2501 28.0887C47.6501 29.1887 47.6501 30.0887 48.7501 29.9887Z" fill="#248280"/>
<path d="M51.9503 30.5887C51.9503 30.5887 51.1502 30.9887 50.3502 30.5887C49.5502 30.1887 49.8503 29.1887 50.1503 28.8887C50.5503 29.6887 50.4503 30.3887 51.9503 30.5887Z" fill="#248280"/>
<path d="M65.15 22.1884C63.55 20.0884 61.65 18.8884 58.65 19.3884C55.65 19.7884 54.25 20.7884 53.45 22.4884C52.65 24.2884 51.25 26.3884 50.85 28.2884C50.55 30.1884 54.45 30.3884 54.45 30.3884C50.55 29.1884 51.45 28.2884 51.75 27.3884C52.05 26.5884 53.15 24.2884 54.25 22.4884C55.35 20.6884 56.05 21.0884 56.05 21.0884C56.05 21.0884 55.55 21.8884 54.45 23.6884C53.45 25.4884 53.35 26.3884 55.05 29.0884C56.75 31.7884 60.45 31.1884 62.95 29.6884C65.45 28.2884 66.85 24.1884 65.15 22.1884ZM62.55 28.4884C61.55 29.1884 60.35 30.2884 57.25 29.1884C55.85 28.1884 54.45 26.2884 54.75 24.7884C55.05 23.2884 55.25 22.6884 56.45 21.2884C57.65 19.8884 58.25 19.6884 59.65 19.6884C61.05 19.6884 62.35 20.0884 63.45 21.0884C64.55 21.9884 64.75 22.6884 64.95 24.4884C65.15 26.2884 63.55 27.8884 62.55 28.4884Z" fill="#248280"/>
<path d="M62.65 26.0884C63.15 25.3884 63.5499 23.9884 63.0499 22.8884C62.5499 21.7884 61.7499 20.9884 60.8499 20.5884C59.9499 20.1884 57.9499 20.7885 56.8499 22.1885C55.7499 23.5885 56.2499 24.0885 56.7499 25.2885C57.2499 26.4885 57.15 27.7884 59.15 27.9884C61.15 28.1884 62.65 26.0884 62.65 26.0884Z" fill="#248280"/>
<path d="M70.9501 32.389C71.9501 32.289 72.5501 31.789 73.9501 30.789C72.9501 30.689 70.7501 31.489 69.2501 32.089C67.7501 32.689 65.6501 34.189 63.7501 34.689C61.8501 35.189 62.0501 35.589 60.3501 35.689C58.6501 35.789 57.6501 36.089 58.8501 36.189C59.9501 36.289 62.0501 36.589 66.2501 36.189C63.8501 38.189 59.9501 37.389 58.7501 36.889C57.4501 36.389 55.0501 36.089 53.2501 35.389C51.4501 34.689 49.6501 34.289 49.2501 33.789C48.8501 33.289 49.0501 32.989 48.2501 32.889C47.4501 32.789 46.0501 33.189 44.9501 32.489C43.8501 31.789 44.5501 31.289 45.4501 31.389C46.3501 31.489 47.9501 31.989 50.2501 32.489C50.1501 32.989 50.4501 33.289 51.0501 33.589C51.5501 33.989 52.5501 34.489 55.3501 35.189C58.1501 35.789 60.6501 34.789 62.8501 33.589C65.0501 32.389 66.7501 30.889 67.9501 29.189C69.1501 27.489 69.8501 27.289 71.5501 26.789C72.3501 26.589 73.2501 26.689 73.2501 26.389C73.2501 26.089 73.1502 25.989 71.6502 26.189C70.1502 26.289 68.7501 27.289 67.9501 28.289C67.1501 29.289 64.9501 31.389 63.9501 32.189C62.9501 32.989 61.5501 33.589 59.2501 33.389C56.9501 33.189 53.9501 32.489 50.8501 31.789C47.7501 31.089 46.3501 30.389 45.2501 29.989C44.1501 29.589 45.2502 30.089 45.1502 30.789C45.0502 31.489 44.0501 31.189 42.8501 30.789C41.6501 30.389 42.3501 30.989 43.8501 32.289C45.3501 33.589 46.0502 33.389 47.6502 33.989C49.2502 34.589 51.4502 35.789 53.6502 36.589C55.8502 37.389 57.7501 38.189 61.3501 38.589C64.9501 38.989 66.9501 36.689 67.5501 36.189C68.1501 35.589 69.3501 34.589 70.2501 34.689C71.0501 34.789 70.9501 34.389 70.9501 33.689C70.9501 32.889 69.8502 33.889 68.1502 34.689C66.4502 35.489 65.0501 36.089 62.2501 35.789C64.4501 35.289 67.3501 34.089 67.9501 33.689C68.6501 33.189 70.0501 32.489 70.9501 32.389ZM54.7501 33.389C56.0501 33.589 58.0501 33.689 58.9501 33.689C59.8501 33.689 60.1501 33.689 59.8501 33.989C59.8501 33.989 58.8502 34.689 57.1502 34.689C55.4502 34.689 52.4501 34.289 51.0501 32.889C51.9501 32.789 53.4501 33.189 54.7501 33.389Z" fill="#248280"/>
<path d="M63.8501 33.7885C63.8501 33.7885 65.9501 32.7885 68.8501 30.5885C71.7501 28.3885 77.5501 26.8885 80.1501 27.8885C80.0501 28.6885 80.0501 28.6885 80.0501 28.6885C80.0501 28.6885 77.3501 27.7885 74.5501 28.7885C73.6501 29.0885 72.2501 29.3885 71.0501 30.0885C68.2501 31.4885 65.5501 33.4885 63.8501 33.7885Z" fill="url(#paint1_linear_265_8057)"/>
<path d="M125.45 90.5886C125.45 90.5886 114.05 98.3886 105.85 102.289C97.6502 106.189 99.2502 106.589 84.8502 106.289C70.4502 105.989 62.4502 107.089 56.2502 104.389C49.9502 101.589 33.0502 90.5886 33.0502 90.5886C33.0502 90.5886 52.5502 81.7886 54.1502 64.2886C56.2502 56.2886 56.5502 54.8886 56.5502 54.8886C56.5502 54.8886 59.4502 55.9886 60.8502 56.8886C60.6502 55.4886 62.1502 54.2886 62.1502 54.2886C62.1502 54.2886 62.8502 55.0886 64.1502 55.2886C65.4502 55.4886 65.4502 54.1886 65.1502 53.3886C64.7502 52.5886 65.3502 51.8886 66.5502 52.9886C67.7502 54.0886 69.0502 53.4886 68.9502 52.0886C68.8502 50.6886 69.1502 50.4886 70.3502 50.6886C71.5502 50.8886 72.3502 50.4886 72.2502 49.3886C72.1502 48.2886 72.4502 47.8886 73.4502 47.7886C74.5502 47.6886 74.4502 47.8886 75.1502 46.7886C75.8502 45.6886 76.1502 44.6886 77.0502 44.9886C76.4502 44.0886 75.7502 42.6886 76.3502 42.1886C76.9502 41.6886 78.3502 40.5886 78.3502 40.5886C78.3502 40.5886 76.4502 38.9886 77.3502 37.9886C78.3502 36.9886 78.8502 35.9886 78.1502 35.5886C77.4502 35.1886 75.6502 34.1886 77.1502 34.0886C78.6502 33.9886 78.7502 33.8886 78.6502 32.9886C78.5502 32.0886 78.7502 31.8886 77.7502 31.0886C76.7502 30.2886 76.7502 29.8886 77.6502 29.5886C78.5502 29.2886 78.2502 28.9886 78.2502 28.3886C78.1502 27.7886 78.2502 27.3886 79.9502 27.3886C81.6502 27.3886 82.7502 27.3886 82.7502 27.3886C82.7502 27.3886 73.3502 19.8886 65.9502 18.1886C58.5502 16.4886 52.8502 17.8886 49.3502 18.9886C45.8502 20.0886 44.0502 20.0886 42.1502 20.1886C42.2502 24.3886 42.3502 27.9886 42.8502 29.4886C41.5502 24.9886 41.3502 21.0886 40.5502 20.2886C39.5502 20.3886 38.7502 20.3886 38.7502 20.3886C38.7502 20.3886 39.3502 27.1886 39.9502 28.4886C40.5502 29.7886 40.6502 30.6886 39.8502 29.5886C39.0502 28.4886 38.7502 25.6886 38.2502 23.9886C37.7502 22.2886 37.2502 20.6886 35.2502 20.6886C33.2502 20.5886 28.2502 20.9886 25.9502 21.7886C23.6502 22.5886 22.6502 23.8886 22.2502 24.5886C22.0502 22.1886 21.4502 18.0886 25.1502 13.5886C28.8502 8.98862 37.5502 1.78863 55.7502 0.288627C73.9502 -1.21137 90.7502 7.18861 96.5502 11.0886C102.35 14.9886 109.25 20.2886 111.25 22.8886C104.65 19.0886 102.45 17.7886 98.6502 16.9886C106.65 24.0886 117.65 35.3886 122.65 54.2886C118.15 47.6886 117.85 46.3886 113.05 43.1886C117.05 50.2886 120.65 57.7886 123.75 73.1886C120.95 66.8886 117.55 61.6886 114.55 58.7886C115.25 62.1886 119.35 72.2886 120.15 75.9886C121.45 79.1886 123.25 89.8886 125.45 90.5886Z" fill="#248280"/>
<path d="M38.55 110.388L41.75 124.688L65.85 103.688L67.95 105.788L41.35 125.888C41.35 125.888 40.05 126.488 39.75 125.388C39.35 124.088 37.15 112.388 38.55 110.388Z" fill="#248280"/>
<path d="M118.95 110.789L116.55 124.789L92.35 103.889L90.25 105.989L117.05 125.889C117.05 125.889 118.35 126.489 118.65 125.289C118.85 124.189 120.35 112.889 118.95 110.789Z" fill="#248280"/>
<path d="M97.7501 105.788L87.3501 121.088C86.9501 121.588 86.4501 121.888 85.7501 121.888H73.0501C72.4501 121.888 71.9501 121.588 71.6501 121.188L60.8501 105.588C60.8501 105.588 67.3501 98.8884 80.5501 99.5884C93.0501 100.288 97.7501 105.788 97.7501 105.788Z" fill="#248280"/>
<path d="M151.15 118.488C145.45 121.288 139.75 124.088 133.95 126.888V126.488L144.55 134.088L144.75 134.188L144.65 134.388C142.35 141.488 139.05 148.288 135.45 154.788C131.75 161.288 127.65 167.488 123.05 173.388C121.95 174.888 120.75 176.288 119.55 177.688L117.75 179.888L115.85 181.988L112.05 186.088L108.05 189.988C105.45 192.688 102.65 195.088 99.8499 197.588L98.8499 198.488L97.7499 199.388L95.5499 201.088L91.1499 204.588L95.4499 200.988L97.5499 199.188L98.6499 198.288L99.6499 197.288L103.75 193.488C104.45 192.888 105.15 192.288 105.75 191.588L107.65 189.588L111.55 185.588L115.25 181.388L117.05 179.288L118.85 177.088C120.05 175.588 121.25 174.188 122.35 172.788C126.85 166.888 130.95 160.688 134.65 154.288C138.25 147.888 141.55 141.088 143.95 134.088L144.05 134.488L133.65 126.788L133.35 126.588L133.75 126.388C139.55 123.788 145.35 121.088 151.15 118.488Z" fill="url(#paint2_radial_265_8057)"/>
<path d="M5.3501 118.488C11.1501 121.188 16.9501 123.788 22.7501 126.488L23.1501 126.688L22.8501 126.888L12.4501 134.588L12.5501 134.188C14.8501 141.188 18.1501 147.888 21.8501 154.388C25.5501 160.788 29.6501 166.988 34.1501 172.888C35.2501 174.388 36.4501 175.788 37.6501 177.188L39.4501 179.388L41.2501 181.488L44.9501 185.688L48.8501 189.688L50.7501 191.688C51.3501 192.388 52.0501 192.988 52.7501 193.588L56.8501 197.388L57.8501 198.388L58.9501 199.288L61.0501 201.088L65.3501 204.688L60.9501 201.188L58.7501 199.488L57.6501 198.588L56.6501 197.688C53.8501 195.188 51.0501 192.788 48.4501 190.088L44.4501 186.188L40.6501 182.088L38.7501 179.988L36.9501 177.788C35.7501 176.288 34.5501 174.888 33.4501 173.488C28.9501 167.588 24.7501 161.388 21.0501 154.888C17.4501 148.388 14.1501 141.688 11.8501 134.488L11.7501 134.288L11.9501 134.188L22.5501 126.588V126.988C16.7501 124.088 11.0501 121.288 5.3501 118.488Z" fill="url(#paint3_radial_265_8057)"/>
<path d="M224.406 74.2881V155.488H275.006V172.588H205.906V74.2881H224.406Z" fill="#248280"/>
<path d="M344.406 103.389H360.806V172.589H344.606L343.806 162.489C339.906 170.589 329.106 174.589 321.306 174.689C300.806 174.789 285.606 162.189 285.606 137.889C285.606 113.989 301.506 101.489 321.706 101.689C331.006 101.689 339.806 106.089 343.806 112.889L344.406 103.389ZM302.906 137.889C302.906 151.089 312.006 158.989 323.406 158.989C350.406 158.989 350.406 116.989 323.406 116.989C312.006 116.989 302.906 124.689 302.906 137.889Z" fill="#248280"/>
<path d="M434.506 103.188L449.706 155.288L465.606 103.188H484.606L460.406 172.888H440.506L433.306 152.388L427.106 129.188L420.906 152.388L413.706 172.888H393.806L369.506 103.188H388.606L404.506 155.288L419.506 103.188H434.506Z" fill="#248280"/>
<path d="M570.306 103.389L528.006 201.589H509.206L522.106 171.489L494.406 103.389H514.306L524.806 133.289L531.406 152.789L538.606 133.689L551.206 103.389H570.306Z" fill="#248280"/>
<path d="M597.906 83.8885C597.906 97.1885 577.706 97.1885 577.706 83.8885C577.706 70.5885 597.906 70.4885 597.906 83.8885Z" fill="#22BBB3"/>
<path d="M596.406 103.089H579.306V172.589H596.406V103.089Z" fill="#248280"/>
<path d="M662.806 172.588V136.388C662.806 125.888 657.006 117.888 646.106 117.888C635.606 117.888 628.406 126.688 628.406 137.288V172.688H611.406V103.288H626.706L627.806 112.688C634.806 105.788 641.806 102.288 650.606 102.288C666.906 102.288 680.006 114.488 680.006 136.288V172.688H662.806V172.588Z" fill="#248280"/>
<path d="M749.106 96.3887L761.706 105.989L754.006 115.789C759.306 121.789 761.306 128.689 761.306 136.289C761.306 144.889 758.106 156.889 746.706 162.089C758.206 167.889 761.006 176.089 761.006 184.989C761.006 204.089 746.406 215.889 726.306 215.889C706.206 215.889 691.206 203.689 691.206 184.989H708.206C708.206 193.989 716.506 199.889 726.306 199.889C736.106 199.889 743.906 194.589 743.906 184.989C743.906 175.389 734.906 171.089 726.306 171.089C704.706 171.089 691.206 157.889 691.206 136.289C691.206 114.689 706.906 101.189 726.306 101.189C731.806 101.189 737.406 101.889 742.206 105.089L749.106 96.3887ZM708.206 136.289C708.206 148.389 716.306 155.489 726.306 155.489C736.106 155.489 744.306 148.189 744.306 136.289C744.306 124.389 736.206 116.789 726.306 116.789C716.306 116.689 708.206 124.189 708.206 136.289Z" fill="#248280"/>
<defs>
<linearGradient id="paint0_linear_265_8057" x1="44.9129" y1="20.1875" x2="44.8076" y2="27.6276" gradientUnits="userSpaceOnUse">
<stop stop-color="#0B4038"/>
<stop offset="1" stop-color="#0B534A"/>
</linearGradient>
<linearGradient id="paint1_linear_265_8057" x1="63.8424" y1="30.7236" x2="80.0891" y2="30.7236" gradientUnits="userSpaceOnUse">
<stop stop-color="#0B534A"/>
<stop offset="1" stop-color="#0B4038"/>
</linearGradient>
<radialGradient id="paint2_radial_265_8057" cx="0" cy="0" r="1" gradientUnits="userSpaceOnUse" gradientTransform="translate(121.267 161.565) scale(37.3505 37.3505)">
<stop stop-color="#6CC076"/>
<stop offset="1" stop-color="#06554F"/>
</radialGradient>
<radialGradient id="paint3_radial_265_8057" cx="0" cy="0" r="1" gradientUnits="userSpaceOnUse" gradientTransform="translate(35.1754 161.565) scale(37.3828 37.3828)">
<stop stop-color="#6CC076"/>
<stop offset="1" stop-color="#06554F"/>
</radialGradient>
</defs>
</svg>
