<svg width="15" height="16" viewBox="0 0 15 16" fill="none" xmlns="http://www.w3.org/2000/svg">
<path d="M11.375 10.25C10.9998 10.2499 10.6283 10.325 10.2827 10.4711C9.93701 10.6171 9.62416 10.831 9.36266 11.1001L6.12125 9.01671C6.37622 8.36288 6.37622 7.63711 6.12125 6.98328L9.36266 4.89992C9.84954 5.39866 10.5043 5.69884 11.1999 5.74228C11.8955 5.78571 12.5825 5.5693 13.1277 5.135C13.6728 4.7007 14.0373 4.07945 14.1504 3.3917C14.2635 2.70395 14.1172 1.9987 13.7399 1.41268C13.3626 0.826652 12.7811 0.401608 12.1082 0.21995C11.4353 0.0382923 10.7189 0.112963 10.0979 0.429486C9.47697 0.746008 8.99564 1.28183 8.74728 1.93307C8.49893 2.58431 8.50123 3.30457 8.75375 3.95421L5.51235 6.03757C5.12202 5.63684 4.62105 5.36162 4.0735 5.24708C3.52594 5.13254 2.95666 5.18389 2.43844 5.39456C1.92022 5.60524 1.47659 5.96567 1.16427 6.42978C0.851957 6.89388 0.685135 7.44058 0.685135 7.99999C0.685135 8.5594 0.851957 9.1061 1.16427 9.57021C1.47659 10.0343 1.92022 10.3947 2.43844 10.6054C2.95666 10.8161 3.52594 10.8674 4.0735 10.7529C4.62105 10.6384 5.12202 10.3631 5.51235 9.96242L8.75375 12.0458C8.5366 12.6058 8.50447 13.2207 8.66206 13.8003C8.81965 14.38 9.15867 14.8939 9.6295 15.267C10.1003 15.64 10.6782 15.8525 11.2785 15.8733C11.8788 15.8941 12.4701 15.7222 12.9656 15.3827C13.4612 15.0432 13.835 14.554 14.0324 13.9867C14.2298 13.4194 14.2403 12.8037 14.0625 12.23C13.8847 11.6562 13.5279 11.1544 13.0443 10.7982C12.5607 10.4419 11.9757 10.2498 11.375 10.25ZM11.375 1.24999C11.7088 1.24999 12.035 1.34896 12.3125 1.53439C12.59 1.71981 12.8063 1.98337 12.934 2.29172C13.0618 2.60007 13.0952 2.93937 13.0301 3.26671C12.965 3.59405 12.8042 3.89474 12.5682 4.13074C12.3322 4.36674 12.0316 4.52746 11.7042 4.59257C11.3769 4.65768 11.0376 4.62426 10.7292 4.49654C10.4209 4.36882 10.1573 4.15253 9.9719 3.87502C9.78647 3.59751 9.6875 3.27125 9.6875 2.93749C9.6875 2.48994 9.86529 2.06072 10.1818 1.74425C10.4982 1.42778 10.9274 1.24999 11.375 1.24999ZM3.5 9.68749C3.16625 9.68749 2.83998 9.58852 2.56248 9.4031C2.28497 9.21767 2.06868 8.95412 1.94095 8.64577C1.81323 8.33742 1.77981 7.99812 1.84493 7.67078C1.91004 7.34344 2.07076 7.04275 2.30676 6.80675C2.54276 6.57075 2.84344 6.41003 3.17079 6.34492C3.49813 6.27981 3.83743 6.31322 4.14578 6.44095C4.45413 6.56867 4.71768 6.78496 4.90311 7.06247C5.08853 7.33998 5.1875 7.66624 5.1875 7.99999C5.1875 8.44755 5.00971 8.87677 4.69324 9.19324C4.37678 9.5097 3.94755 9.68749 3.5 9.68749ZM11.375 14.75C11.0412 14.75 10.715 14.651 10.4375 14.4656C10.16 14.2802 9.94368 14.0166 9.81596 13.7083C9.68823 13.3999 9.65481 13.0606 9.71993 12.7333C9.78504 12.4059 9.94576 12.1053 10.1818 11.8693C10.4178 11.6332 10.7184 11.4725 11.0458 11.4074C11.3731 11.3423 11.7124 11.3757 12.0208 11.5034C12.3291 11.6312 12.5927 11.8475 12.7781 12.125C12.9635 12.4025 13.0625 12.7287 13.0625 13.0625C13.0625 13.51 12.8847 13.9393 12.5682 14.2557C12.2518 14.5722 11.8226 14.75 11.375 14.75Z" fill="#2A2A2A"/>
</svg>
